<?xml version="1.0" standalone="no"?>
<!DOCTYPE svg PUBLIC "-//W3C//DTD SVG 20010904//EN"
 "http://www.w3.org/TR/2001/REC-SVG-20010904/DTD/svg10.dtd">
<svg version="1.0" xmlns="http://www.w3.org/2000/svg"
 width="700.000000pt" height="700.000000pt" viewBox="0 0 700.000000 700.000000"
 preserveAspectRatio="xMidYMid meet">
<metadata>
Created by potrace 1.14, written by Peter Selinger 2001-2017
</metadata>
<g transform="translate(0.000000,700.000000) scale(0.100000,-0.100000)"
fill="#000000" stroke="none">
<path d="M3315 6240 c-984 -71 -1844 -648 -2275 -1525 -198 -402 -283 -767
-283 -1215 0 -447 86 -813 283 -1215 267 -543 702 -978 1245 -1245 230 -113
389 -169 635 -223 364 -81 784 -81 1155 -2 1054 226 1875 1045 2108 2105 81
368 81 793 0 1160 -93 423 -274 802 -543 1140 -99 124 -291 317 -410 413 -333
268 -743 464 -1151 552 -231 49 -541 72 -764 55z m515 -230 c579 -84 1052
-319 1456 -724 470 -472 718 -1042 741 -1706 24 -717 -249 -1391 -768 -1895
-397 -385 -876 -617 -1439 -696 -125 -18 -515 -18 -640 0 -586 82 -1088 334
-1490 747 -392 403 -621 876 -702 1449 -17 117 -17 513 0 630 81 571 309 1045
697 1444 406 418 935 684 1495 751 47 5 101 12 120 14 63 7 453 -3 530 -14z"/>
<path d="M3210 5634 c-360 -48 -706 -191 -1010 -418 -122 -90 -326 -294 -416
-416 -209 -280 -345 -593 -406 -930 -30 -167 -36 -463 -13 -640 60 -481 270
-906 615 -1250 414 -413 937 -630 1520 -630 584 0 1107 217 1520 630 286 285
474 617 570 1003 81 331 81 704 -1 1037 -212 856 -935 1502 -1807 1614 -151
20 -426 19 -572 0z"/>
</g>
</svg>
